<svg width="75.703" height="42.902" viewBox="0 0 75.703 42.902" xmlns="http://www.w3.org/2000/svg"><g id="svgGroup" stroke-linecap="round" fill-rule="evenodd" font-size="9pt" stroke="#000" stroke-width="0.25mm" fill="#000" style="stroke:#000;stroke-width:0.25mm;fill:#000"><path d="M 20.202 22.501 L 8.602 22.501 A 16.192 16.192 0 0 1 5.463 22.224 Q 0.509 21.241 0.049 16.756 A 9.36 9.36 0 0 1 0.002 15.801 L 0.002 6.901 A 8.339 8.339 0 0 1 0.477 3.963 Q 1.963 0.001 8.102 0.001 L 28.902 0.001 A 11.409 11.409 0 0 1 30.248 0.073 Q 31.6 0.235 32.263 0.758 A 1.624 1.624 0 0 1 32.902 2.101 A 1.373 1.373 0 0 1 32.108 3.347 Q 31.437 3.723 30.197 3.844 A 13.464 13.464 0 0 1 28.902 3.901 L 12.602 3.901 A 7.475 7.475 0 0 0 10.318 4.22 Q 7.886 5 7.237 7.691 A 9.46 9.46 0 0 0 7.002 9.901 L 7.002 12.401 A 10.5 10.5 0 0 0 7.246 14.778 Q 8.003 18.021 11.1 18.583 A 7.855 7.855 0 0 0 12.502 18.701 L 24.302 18.701 A 16.192 16.192 0 0 1 27.44 18.977 Q 32.394 19.961 32.854 24.446 A 9.36 9.36 0 0 1 32.902 25.401 L 32.902 36.201 A 7.641 7.641 0 0 1 32.383 39.132 Q 31.016 42.442 26.048 42.845 A 17.912 17.912 0 0 1 24.602 42.901 L 3.902 42.901 A 12.017 12.017 0 0 1 2.601 42.837 Q 1.308 42.695 0.658 42.24 A 1.438 1.438 0 0 1 0.002 41.001 A 1.373 1.373 0 0 1 0.795 39.755 Q 1.466 39.378 2.706 39.258 A 13.464 13.464 0 0 1 4.002 39.201 L 20.502 39.201 A 7.957 7.957 0 0 0 22.606 38.947 Q 25.013 38.286 25.662 35.898 A 7.626 7.626 0 0 0 25.902 33.901 L 25.902 29.201 A 11.482 11.482 0 0 0 25.653 26.693 Q 24.858 23.158 21.527 22.604 A 8.083 8.083 0 0 0 20.202 22.501 Z M 75.702 34.601 L 75.702 36.301 A 8.159 8.159 0 0 1 75.27 39.071 Q 73.978 42.657 68.821 42.885 A 16.27 16.27 0 0 1 68.102 42.901 L 50.102 42.901 A 10.849 10.849 0 0 1 47.257 42.561 Q 42.802 41.348 42.802 35.801 L 42.802 7.301 Q 42.802 0.001 50.202 0.001 L 68.102 0.001 Q 75.702 0.001 75.702 6.601 L 75.702 8.101 A 5.352 5.352 0 0 1 75.534 9.504 Q 74.936 11.701 72.202 11.701 A 7.975 7.975 0 0 1 71.012 11.62 Q 69.474 11.387 68.96 10.481 A 2.152 2.152 0 0 1 68.702 9.401 A 7.073 7.073 0 0 0 68.366 7.125 Q 67.298 3.978 62.822 3.903 A 13.165 13.165 0 0 0 62.602 3.901 L 55.802 3.901 A 10.07 10.07 0 0 0 53.537 4.132 Q 50.434 4.851 49.908 7.805 A 7.408 7.408 0 0 0 49.802 9.101 L 49.802 34.101 Q 49.802 38.95 55.135 39.188 A 12.676 12.676 0 0 0 55.702 39.201 L 62.802 39.201 A 9.344 9.344 0 0 0 65.064 38.952 Q 68.702 38.041 68.702 33.801 A 2.152 2.152 0 0 1 69.393 32.201 A 2.887 2.887 0 0 1 69.502 32.101 Q 70.226 31.467 71.854 31.407 A 9.498 9.498 0 0 1 72.202 31.401 A 5.548 5.548 0 0 1 73.544 31.549 Q 75.295 31.987 75.625 33.724 A 4.705 4.705 0 0 1 75.702 34.601 Z" vector-effect="non-scaling-stroke"/></g></svg>
