<svg xmlns="http://www.w3.org/2000/svg" version="1.1" xmlns:xlink="http://www.w3.org/1999/xlink" xmlns:svgjs="http://svgjs.dev/svgjs" width="128" height="128" viewBox="0 0 128 128"><g transform="matrix(0.8046875,0,0,0.8046875,12.333870967741937,12.333870967741937)"><svg viewBox="0 0 155 155" data-background-color="#471aa0" preserveAspectRatio="xMidYMid meet" height="128" width="128" xmlns="http://www.w3.org/2000/svg" xmlns:xlink="http://www.w3.org/1999/xlink"><g id="tight-bounds" transform="matrix(1,0,0,1,0.25,0.25)"><svg viewBox="0 0 154.5 154.5" height="154.5" width="154.5"><g><svg></svg></g><g><svg viewBox="0 0 154.5 154.5" height="154.5" width="154.5"><mask id="SvgjsMask1392"><rect width="154.5" height="154.5" fill="white"></rect><g transform="matrix(1,0,0,1,51.94953530027934,43.83165)" id="clone"><svg viewBox="0 0 50.600929399441334 66.8367" height="66.8367" width="50.600929399441334"><g><svg viewBox="0 0 50.600929399441334 66.8367" height="66.8367" width="50.600929399441334"><g><svg viewBox="0 0 50.600929399441334 66.8367" height="66.8367" width="50.600929399441334"><g id="SvgjsG1391"><svg viewBox="0 0 50.600929399441334 66.8367" height="66.8367" width="50.600929399441334" id="SvgjsSvg1390"><g><svg viewBox="0 0 50.600929399441334 66.8367" height="66.8367" width="50.600929399441334"><g transform="matrix(1,0,0,1,0,0)"><svg width="50.600929399441334" viewBox="-2.05 -45.19 38.059999999999995 49.949999999999996" height="66.8367" data-palette-color="#ffffff"><path d="M18.6-24.61L18.6-24.61 15.65-24.61Q13.77-24.61 12.94-25.57 12.11-26.54 12.11-28.13L12.11-28.13Q12.11-31.64 17.36-31.64L17.36-31.64Q22.29-31.64 24.78-30.18L24.78-30.18 23.36-29.1Q21.66-29.88 17.36-29.88L17.36-29.88Q15.26-29.88 14.54-29.42 13.82-28.96 13.82-28.13 13.82-27.29 14.21-26.83 14.6-26.37 15.65-26.37L15.65-26.37 18.68-26.37Q21.97-26.37 24.62-25.24 27.27-24.12 28.98-22.18 30.69-20.24 31.59-17.71 32.5-15.19 32.5-12.3L32.5-12.3Q32.5-9.96 31.84-7.86 31.18-5.76 29.85-4 28.52-2.25 26.65-0.96 24.78 0.32 22.2 1.04 19.63 1.76 16.63 1.76L16.63 1.76Q11.91 1.76 7.8 0.33 3.69-1.1 0.95-3.66L0.95-3.66 2.37-4.71Q4.86-2.47 8.61-1.23 12.35 0 16.63 0L16.63 0Q19.97 0 22.67-0.96 25.37-1.93 27.11-3.61 28.86-5.3 29.8-7.52 30.74-9.74 30.74-12.3L30.74-12.3Q30.74-15.7 29.37-18.44 28-21.19 25.21-22.9 22.41-24.61 18.6-24.61ZM15.65-22.85L15.65-22.85 18.43-22.85Q23.39-22.85 26.18-19.82 28.98-16.8 28.98-12.3L28.98-12.3Q28.98-7.74 25.73-4.75 22.49-1.76 16.63-1.76L16.63-1.76Q12.72-1.76 9.33-2.83 5.93-3.91 3.69-5.86L3.69-5.86 5.05-6.96Q7.06-5.32 10.1-4.42 13.13-3.52 16.63-3.52L16.63-3.52Q21.78-3.52 24.5-5.98 27.22-8.45 27.22-12.3L27.22-12.3Q27.22-16.11 24.94-18.6 22.66-21.09 18.41-21.09L18.41-21.09 15.65-21.09Q12.08-21.09 10.3-23.05 8.52-25 8.52-28.13 8.52-31.25 10.73-33.2 12.94-35.16 17.36-35.16L17.36-35.16Q20.46-35.16 23.12-34.44 25.78-33.72 27.51-32.37L27.51-32.37 26.12-31.3Q23.07-33.4 17.36-33.4L17.36-33.4Q13.67-33.4 11.98-31.95 10.28-30.49 10.28-28.13L10.28-28.13Q10.28-25.73 11.54-24.29 12.79-22.85 15.65-22.85ZM15.65-19.34L15.65-19.34 18.33-19.34Q21.9-19.34 23.68-17.36 25.46-15.38 25.46-12.3L25.46-12.3Q25.46-9.18 23.25-7.23 21.04-5.27 16.63-5.27L16.63-5.27Q13.53-5.27 10.85-5.99 8.18-6.71 6.45-8.06L6.45-8.06 7.84-9.13Q10.89-7.03 16.63-7.03L16.63-7.03Q20.31-7.03 22.01-8.48 23.71-9.94 23.71-12.3 23.71-14.67 22.44-16.13 21.17-17.58 18.31-17.58L18.31-17.58 15.65-17.58Q10.64-17.58 7.82-20.57 5-23.56 5-28.13 5-32.69 8.25-35.68 11.5-38.67 17.36-38.67L17.36-38.67Q21.26-38.67 24.65-37.6 28.03-36.52 30.27-34.57L30.27-34.57 28.91-33.47Q26.9-35.11 23.88-36.01 20.85-36.91 17.36-36.91L17.36-36.91Q12.21-36.91 9.48-34.45 6.76-31.98 6.76-28.13L6.76-28.13Q6.76-24.29 9.06-21.81 11.35-19.34 15.65-19.34ZM15.65-15.82L15.65-15.82 18.33-15.82Q20.21-15.82 21.04-14.84 21.88-13.87 21.88-12.3L21.88-12.3Q21.88-8.79 16.63-8.79L16.63-8.79Q11.67-8.79 9.18-10.25L9.18-10.25 10.6-11.33Q12.3-10.55 16.63-10.55L16.63-10.55Q18.73-10.55 19.45-11.01 20.17-11.47 20.17-12.3L20.17-12.3Q20.17-13.11 19.76-13.59 19.36-14.06 18.29-14.06L18.29-14.06 15.65-14.06Q12.28-14.06 9.56-15.16 6.84-16.26 5.09-18.19 3.34-20.12 2.42-22.66 1.49-25.2 1.49-28.13L1.49-28.13Q1.49-30.47 2.15-32.57 2.81-34.67 4.14-36.43 5.47-38.18 7.34-39.47 9.2-40.75 11.78-41.47 14.36-42.19 17.36-42.19L17.36-42.19Q22.07-42.19 26.17-40.76 30.27-39.33 33.01-36.77L33.01-36.77 31.59-35.72Q29.1-37.96 25.37-39.2 21.63-40.43 17.36-40.43L17.36-40.43Q14.01-40.43 11.32-39.47 8.62-38.5 6.87-36.82 5.13-35.13 4.19-32.91 3.25-30.69 3.25-28.13L3.25-28.13Q3.25-24.68 4.64-21.92 6.03-19.17 8.89-17.49 11.74-15.82 15.65-15.82Z" opacity="1" transform="matrix(1,0,0,1,0,0)" fill="black" class="wordmark-text-0" id="SvgjsPath1389" stroke-width="5" stroke="black" stroke-linejoin="round"></path></svg></g></svg></g></svg></g></svg></g></svg></g></svg></g></mask><g transform="matrix(1,0,0,1,51.94953530027934,43.83165)"><svg viewBox="0 0 50.600929399441334 66.8367" height="66.8367" width="50.600929399441334"><g><svg viewBox="0 0 50.600929399441334 66.8367" height="66.8367" width="50.600929399441334"><g><svg viewBox="0 0 50.600929399441334 66.8367" height="66.8367" width="50.600929399441334"><g id="textblocktransform"><svg viewBox="0 0 50.600929399441334 66.8367" height="66.8367" width="50.600929399441334" id="textblock"><g><svg viewBox="0 0 50.600929399441334 66.8367" height="66.8367" width="50.600929399441334"><g transform="matrix(1,0,0,1,0,0)"><svg width="50.600929399441334" viewBox="-2.05 -45.19 38.059999999999995 49.949999999999996" height="66.8367" data-palette-color="#ffffff"><path d="M18.6-24.61L18.6-24.61 15.65-24.61Q13.77-24.61 12.94-25.57 12.11-26.54 12.11-28.13L12.11-28.13Q12.11-31.64 17.36-31.64L17.36-31.64Q22.29-31.64 24.78-30.18L24.78-30.18 23.36-29.1Q21.66-29.88 17.36-29.88L17.36-29.88Q15.26-29.88 14.54-29.42 13.82-28.96 13.82-28.13 13.82-27.29 14.21-26.83 14.6-26.37 15.65-26.37L15.65-26.37 18.68-26.37Q21.97-26.37 24.62-25.24 27.27-24.12 28.98-22.18 30.69-20.24 31.59-17.71 32.5-15.19 32.5-12.3L32.5-12.3Q32.5-9.96 31.84-7.86 31.18-5.76 29.85-4 28.52-2.25 26.65-0.96 24.78 0.32 22.2 1.04 19.63 1.76 16.63 1.76L16.63 1.76Q11.91 1.76 7.8 0.33 3.69-1.1 0.95-3.66L0.95-3.66 2.37-4.71Q4.86-2.47 8.61-1.23 12.35 0 16.63 0L16.63 0Q19.97 0 22.67-0.96 25.37-1.93 27.11-3.61 28.86-5.3 29.8-7.52 30.74-9.74 30.74-12.3L30.74-12.3Q30.74-15.7 29.37-18.44 28-21.19 25.21-22.9 22.41-24.61 18.6-24.61ZM15.65-22.85L15.65-22.85 18.43-22.85Q23.39-22.85 26.18-19.82 28.98-16.8 28.98-12.3L28.98-12.3Q28.98-7.74 25.73-4.75 22.49-1.76 16.63-1.76L16.63-1.76Q12.72-1.76 9.33-2.83 5.93-3.91 3.69-5.86L3.69-5.86 5.05-6.96Q7.06-5.32 10.1-4.42 13.13-3.52 16.63-3.52L16.63-3.52Q21.78-3.52 24.5-5.98 27.22-8.45 27.22-12.3L27.22-12.3Q27.22-16.11 24.94-18.6 22.66-21.09 18.41-21.09L18.41-21.09 15.65-21.09Q12.08-21.09 10.3-23.05 8.52-25 8.52-28.13 8.52-31.25 10.73-33.2 12.94-35.16 17.36-35.16L17.36-35.16Q20.46-35.16 23.12-34.44 25.78-33.72 27.51-32.37L27.51-32.37 26.12-31.3Q23.07-33.4 17.36-33.4L17.36-33.4Q13.67-33.4 11.98-31.95 10.28-30.49 10.28-28.13L10.28-28.13Q10.28-25.73 11.54-24.29 12.79-22.85 15.65-22.85ZM15.65-19.34L15.65-19.34 18.33-19.34Q21.9-19.34 23.68-17.36 25.46-15.38 25.46-12.3L25.46-12.3Q25.46-9.18 23.25-7.23 21.04-5.27 16.63-5.27L16.63-5.27Q13.53-5.27 10.85-5.99 8.18-6.71 6.45-8.06L6.45-8.06 7.84-9.13Q10.89-7.03 16.63-7.03L16.63-7.03Q20.31-7.03 22.01-8.48 23.71-9.94 23.71-12.3 23.71-14.67 22.44-16.13 21.17-17.58 18.31-17.58L18.31-17.58 15.65-17.58Q10.64-17.58 7.82-20.57 5-23.56 5-28.13 5-32.69 8.25-35.68 11.5-38.67 17.36-38.67L17.36-38.67Q21.26-38.67 24.65-37.6 28.03-36.52 30.27-34.57L30.27-34.57 28.91-33.47Q26.9-35.11 23.88-36.01 20.85-36.91 17.36-36.91L17.36-36.91Q12.21-36.91 9.48-34.45 6.76-31.98 6.76-28.13L6.76-28.13Q6.76-24.29 9.06-21.81 11.35-19.34 15.65-19.34ZM15.65-15.82L15.65-15.82 18.33-15.82Q20.21-15.82 21.04-14.84 21.88-13.87 21.88-12.3L21.88-12.3Q21.88-8.79 16.63-8.79L16.63-8.79Q11.67-8.79 9.18-10.25L9.18-10.25 10.6-11.33Q12.3-10.55 16.63-10.55L16.63-10.55Q18.73-10.55 19.45-11.01 20.17-11.47 20.17-12.3L20.17-12.3Q20.17-13.11 19.76-13.59 19.36-14.06 18.29-14.06L18.29-14.06 15.65-14.06Q12.28-14.06 9.56-15.16 6.84-16.26 5.09-18.19 3.34-20.12 2.42-22.66 1.49-25.2 1.49-28.13L1.49-28.13Q1.49-30.47 2.15-32.57 2.81-34.67 4.14-36.43 5.47-38.18 7.34-39.47 9.2-40.75 11.78-41.47 14.36-42.19 17.36-42.19L17.36-42.19Q22.07-42.19 26.17-40.76 30.27-39.33 33.01-36.77L33.01-36.77 31.59-35.72Q29.1-37.96 25.37-39.2 21.63-40.43 17.36-40.43L17.36-40.43Q14.01-40.43 11.32-39.47 8.62-38.5 6.87-36.82 5.13-35.13 4.19-32.91 3.25-30.69 3.25-28.13L3.25-28.13Q3.25-24.68 4.64-21.92 6.03-19.17 8.89-17.49 11.74-15.82 15.65-15.82Z" opacity="1" transform="matrix(1,0,0,1,0,0)" fill="#000000" class="wordmark-text-0" data-fill-palette-color="primary" id="text-0"></path></svg></g></svg></g></svg></g></svg></g></svg></g></svg></g><g><path d="M0 154.5v-154.5h154.5v154.5zM149.088 149.088v-143.676h-143.676v143.676z" fill="#000000" fill-rule="nonzero" stroke="none" stroke-width="1" stroke-linecap="butt" stroke-linejoin="miter" stroke-miterlimit="10" stroke-dasharray="" stroke-dashoffset="0" font-family="none" font-weight="none" font-size="none" text-anchor="none" style="mix-blend-mode: normal" data-fill-palette-color="tertiary"></path></g></svg></g><defs></defs></svg><rect width="154.5" height="154.5" fill="none" stroke="none" visibility="hidden"></rect></g></svg></g></svg>